<svg width="705" height="247" viewBox="0 0 705 247" fill="none" xmlns="http://www.w3.org/2000/svg">
<path fill-rule="evenodd" clip-rule="evenodd" d="M276.556 204.296H283.521V186.761C284.827 186.969 286.15 187.052 287.472 187.008C289.999 187.167 292.533 186.81 294.918 185.961C297.304 185.112 299.493 183.788 301.352 182.069C302.566 180.738 303.505 179.18 304.115 177.484C304.725 175.789 304.995 173.99 304.908 172.19C304.978 170.386 304.652 168.589 303.952 166.925C303.252 165.261 302.196 163.77 300.858 162.559C297.236 159.735 292.693 158.362 288.114 158.706C284.417 158.769 280.732 159.149 277.099 159.842H276.556V204.296ZM287.818 181.377C286.46 181.389 285.104 181.274 283.768 181.032L283.422 164.88C285.057 164.642 286.709 164.543 288.361 164.584C292.115 164.584 298.24 165.621 298.24 172.585C298.24 178.167 294.437 181.377 287.818 181.377Z" fill="#360C4A"/>
<path fill-rule="evenodd" clip-rule="evenodd" d="M344.324 204.296H351.733L336.273 159.052H328.518L313.157 204.296H319.973L324.567 190.466H339.385L344.324 204.296ZM338.051 184.885H326.493L330.543 172.931C331.087 171.153 331.63 169.276 332.223 167.004C332.717 168.93 333.26 170.906 334.001 173.03L338.051 184.885Z" fill="#360C4A"/>
<path fill-rule="evenodd" clip-rule="evenodd" d="M390.655 204.296H397.916L397.422 203.407C395.956 199.528 394.832 195.528 394.063 191.454C393.842 189.654 393.216 187.929 392.232 186.406C391.248 184.883 389.932 183.603 388.383 182.662C390.643 181.753 392.575 180.182 393.924 178.154C395.273 176.126 395.976 173.737 395.94 171.301C395.988 169.649 395.682 168.005 395.043 166.48C394.404 164.955 393.447 163.585 392.236 162.46C388.488 159.593 383.794 158.252 379.097 158.706C375.317 158.702 371.545 159.066 367.835 159.792H367.341V204.247H374.256V185.181H379.196C384.036 185.378 386.21 187.502 387.444 193.281C388.143 196.955 389.219 200.547 390.655 204V204.296ZM379.69 179.698H374.75L374.553 164.732C376.183 164.447 377.837 164.314 379.492 164.337C384.086 164.386 389.025 165.72 389.025 171.943C389.025 176.636 385.37 179.698 379.69 179.698Z" fill="#360C4A"/>
<path fill-rule="evenodd" clip-rule="evenodd" d="M413.623 204.296H420.538V159.052H413.623V204.296Z" fill="#360C4A"/>
<path fill-rule="evenodd" clip-rule="evenodd" d="M438.122 202.073C441.662 204.017 445.642 205.02 449.68 204.987C461.535 204.987 465.585 197.776 465.585 191.453C465.585 185.131 462.127 181.081 453.978 177.92C447.655 175.45 445.581 173.03 445.581 170.017C445.581 167.004 447.952 164.04 453.286 164.04C456.091 164.032 458.855 164.71 461.337 166.016L461.979 166.411L463.955 160.582H463.51C460.464 158.998 457.064 158.216 453.632 158.31C444.939 158.31 438.814 163.497 438.814 170.906C438.814 176.882 442.617 181.031 450.816 183.946C456.595 186.168 458.719 187.897 458.719 192.145C458.719 196.393 455.459 199.011 450.125 199.011C446.646 198.974 443.238 198.02 440.246 196.245L439.555 195.849L437.727 201.826L438.122 202.073Z" fill="#360C4A"/>
<path d="M329.753 106.645C329.753 120.08 319.874 133.564 297.796 133.564C289.885 133.652 282.088 131.677 275.173 127.835L273 126.304L277.939 110.3L282.039 112.819C287.08 115.93 292.861 117.636 298.783 117.759C307.032 117.759 311.922 114.005 311.922 107.88C311.922 102.94 309.897 99.483 299.129 95.3339C282.879 89.5549 275.173 80.664 275.173 68.612C275.173 53.794 287.719 43.0262 304.809 43.0262C311.663 42.7783 318.465 44.2919 324.567 47.4222L327.234 48.9534L321.998 64.5124L318.096 62.4379C313.95 60.1657 309.291 58.9925 304.562 59.0297C296.067 59.0297 293.103 63.5739 293.103 67.4266C293.103 72.0202 295.128 75.0332 306.736 79.528C318.343 84.0228 329.753 90.5427 329.753 106.645Z" fill="#360C4A"/>
<path d="M404.436 44.3105V132.379H386.506V94.5931H354.943V132.379H337.112V44.3105H354.943V78.0463H386.506V44.3105H404.436Z" fill="#360C4A"/>
<path d="M556.025 126.945C553.498 120.035 551.532 112.932 550.147 105.706C549.106 99.919 546.313 94.5912 542.145 90.4436C545.721 88.2245 548.658 85.113 550.667 81.4151C552.676 77.7172 553.688 73.5602 553.604 69.3525C553.709 65.9697 553.084 62.604 551.771 59.4844C550.459 56.3648 548.49 53.5647 545.998 51.2745C540.268 46.0388 532.316 43.7173 520.214 43.7173C513.259 43.6713 506.315 44.2665 499.469 45.4955L496.505 46.0882V132.379H514.336V97.4574H520.313C527.08 97.4574 530.735 99.6801 533.007 110.25C534.156 117.215 536.095 124.026 538.786 130.551L539.823 132.379H558.939L556.025 126.945ZM514.336 59.5232C516.501 59.2774 518.678 59.1619 520.856 59.1775C535.674 59.1775 535.674 67.7719 535.674 70.538C535.674 77.7 530.093 82.1455 521.202 82.1455H514.238L514.336 59.5232Z" fill="#360C4A"/>
<path d="M616.581 116.227V132.379H563.878V44.3105H614.753V60.4622H581.61V78.5402H612.975V94.5931H581.61V116.227H616.581Z" fill="#360C4A"/>
<path d="M630.955 52.4108C630.955 49.3978 630.955 46.9775 630.708 44.5573H635.302L635.549 49.2496C636.405 47.5933 637.714 46.2133 639.322 45.2693C640.93 44.3253 642.773 43.8558 644.637 43.9151C646.438 43.8911 648.201 44.437 649.674 45.4749C651.146 46.5128 652.253 47.9896 652.836 49.6942V49.6942C653.64 48.223 654.752 46.9426 656.096 45.9403C657.92 44.5452 660.173 43.8291 662.468 43.9151C666.321 43.9151 672.001 46.4342 672.001 56.4611V73.5018H667.062V57.1032C667.062 51.5711 664.987 48.2124 660.739 48.2124C659.32 48.296 657.961 48.8151 656.847 49.699C655.734 50.5828 654.919 51.7885 654.516 53.1517C654.267 54.0027 654.134 54.8832 654.121 55.7696V73.65H649.181V56.1647C649.181 51.5711 647.156 48.2124 643.155 48.2124C641.644 48.2927 640.197 48.8463 639.018 49.7948C637.839 50.7434 636.988 52.0387 636.586 53.4975C636.295 54.3215 636.161 55.1926 636.191 56.0659V73.5018H631.251L630.955 52.4108Z" fill="#360C4A"/>
<path d="M683.558 44.5576L689.93 61.6972C690.572 63.5741 691.264 65.8462 691.758 67.575C692.301 65.8462 692.894 63.6235 693.635 61.549L699.364 44.5576H704.946L697.043 65.2041C693.289 75.0828 690.721 80.0221 687.164 83.3315C685.34 85.0101 683.11 86.1847 680.694 86.7397L679.409 82.2942C681.092 81.7434 682.652 80.8711 684.003 79.7258C685.9 78.1501 687.405 76.1547 688.399 73.8973C688.62 73.4982 688.771 73.0636 688.844 72.6131C688.778 72.1411 688.662 71.6775 688.498 71.2301L678.026 44.5576H683.558Z" fill="#360C4A"/>
<path d="M490.43 132.527H472.896L450.965 61.8451H449.977L428.194 132.527H410.61L437.925 44.0635H463.066L476.748 88.2953L490.43 132.527Z" fill="#FF8A00"/>
<path d="M64.5796 157.49V81.3822C64.5796 76.5129 66.5111 71.8425 69.9503 68.3955C73.3895 64.9485 78.0556 63.0065 82.9249 62.9956H164.156C169.029 63.0065 173.7 64.9472 177.146 68.393C180.591 71.8388 182.532 76.5091 182.543 81.3822V157.49H64.5796Z" fill="#FBFAFC"/>
<path d="M164.157 67.1274C167.934 67.1383 171.554 68.6436 174.224 71.3146C176.895 73.9855 178.401 77.6049 178.412 81.3822V153.358H68.7119V81.3822C68.7119 77.6087 70.208 73.9892 72.8724 71.3171C75.5367 68.645 79.1519 67.1383 82.9253 67.1274H164.157ZM164.157 58.8638H82.9253C76.9602 58.8747 71.2432 61.252 67.0291 65.4738C62.815 69.6957 60.4482 75.4171 60.4482 81.3822V161.622H186.675V81.3822C186.664 75.4133 184.288 69.692 180.068 65.4713C175.847 61.2507 170.126 58.8747 164.157 58.8638Z" fill="#360C4A"/>
<path d="M138.293 88.7368H108.833C101.336 88.7531 93.9158 90.2465 86.9964 93.1316C80.0771 96.0168 73.7941 100.237 68.5065 105.552C63.2189 110.866 59.0304 117.17 56.1803 124.104C53.3303 131.038 51.8745 138.466 51.8962 145.962L75.1997 214.881C92.4707 223.145 103.585 227.855 123.996 227.855C145.812 227.855 158.084 222.525 176.223 213.146L195.188 145.962C195.209 138.469 193.755 131.045 190.907 124.114C188.06 117.183 183.875 110.88 178.592 105.566C173.309 100.252 167.031 96.0311 160.116 93.1435C153.201 90.2559 145.786 88.7585 138.293 88.7368V88.7368Z" fill="white"/>
<path d="M123.954 229.921C102.717 229.921 91.2303 224.921 74.3725 216.74L73.5875 216.369L49.9121 146.128C49.8462 130.432 56.0155 115.352 67.064 104.202C78.1124 93.0533 93.1358 86.7474 108.832 86.6709H138.292C153.966 86.7365 168.975 93.0149 180.028 104.129C191.08 115.244 197.275 130.288 197.253 145.962V146.5L177.957 214.551L177.172 214.964C159.199 224.26 146.679 229.921 123.954 229.921ZM76.8516 213.394C92.883 221.079 103.956 225.789 123.954 225.789C145.357 225.789 157.463 220.5 174.445 211.7L193.08 145.591C193.004 131.083 187.207 117.192 176.949 106.934C166.69 96.6754 152.799 90.8787 138.292 90.8027H108.832C94.3103 90.857 80.3978 96.6441 70.1216 106.905C59.8455 117.165 54.0375 131.069 53.9613 145.591L76.8516 213.394Z" fill="#360C4A"/>
<path d="M96.2716 120.841H95.8584L82.6366 118.362C81.6603 118.155 80.792 117.602 80.192 116.804C79.592 116.007 79.3009 115.019 79.3725 114.024V95.0585C79.3572 94.2784 79.5431 93.5075 79.9122 92.82C80.2812 92.1325 80.8211 91.5516 81.4797 91.1333L94.7428 83.3655C95.2778 83.0391 95.8928 82.8674 96.5195 82.8697C97.0626 82.9063 97.593 83.0499 98.0804 83.2922C98.5678 83.5345 99.0025 83.8708 99.3596 84.2816C99.7167 84.6924 99.9891 85.1697 100.161 85.6861C100.333 86.2025 100.401 86.7478 100.362 87.2907V116.42C100.401 116.963 100.333 117.508 100.161 118.025C99.9891 118.541 99.7167 119.018 99.3596 119.429C99.0025 119.84 98.5678 120.176 98.0804 120.418C97.593 120.661 97.0626 120.804 96.5195 120.841H96.2716Z" fill="#FBFAFC"/>
<path d="M96.478 84.9355C97.4283 84.9355 98.2546 85.9272 98.2546 87.2907V116.42C98.3151 116.965 98.1647 117.513 97.8344 117.951C97.5041 118.389 97.0188 118.684 96.478 118.775H96.2301L82.9256 116.379C82.4471 116.222 82.0356 115.908 81.7581 115.488C81.4805 115.068 81.3532 114.566 81.3968 114.065V95.0585C81.3791 94.6387 81.4684 94.2212 81.6564 93.8454C81.8443 93.4696 82.1246 93.1477 82.4711 92.9099L95.7342 85.1421C95.9629 85.0169 96.2175 84.9462 96.478 84.9355V84.9355ZM96.478 80.8037C95.4889 80.8154 94.5202 81.0861 93.6683 81.5888L80.3639 89.3566C79.3979 89.9574 78.6045 90.7987 78.0612 91.7982C77.518 92.7977 77.2437 93.9211 77.265 95.0585V114.024C77.2045 115.499 77.6695 116.949 78.5775 118.114C79.4854 119.279 80.7773 120.085 82.2232 120.387L95.4863 122.824H96.478C97.2921 122.787 98.091 122.59 98.8288 122.244C99.5667 121.897 100.229 121.409 100.778 120.806C101.327 120.204 101.751 119.499 102.027 118.732C102.303 117.965 102.425 117.151 102.386 116.337V87.4146C102.454 85.7732 101.871 84.1715 100.765 82.957C99.659 81.7425 98.1185 81.0133 96.478 80.9277V80.8037Z" fill="#360C4A"/>
<path d="M150.77 120.841C150.227 120.804 149.696 120.661 149.209 120.418C148.722 120.176 148.287 119.84 147.93 119.429C147.573 119.018 147.3 118.541 147.128 118.025C146.956 117.508 146.888 116.963 146.927 116.42V87.4972C146.888 86.9544 146.956 86.4091 147.128 85.8927C147.3 85.3763 147.573 84.8989 147.93 84.4881C148.287 84.0773 148.722 83.7411 149.209 83.4988C149.696 83.2565 150.227 83.1129 150.77 83.0762C151.397 83.074 152.012 83.2456 152.547 83.572L165.851 91.3398C166.505 91.7602 167.039 92.3426 167.401 93.0305C167.763 93.7183 167.941 94.4881 167.917 95.2651V114.23C167.99 115.22 167.705 116.203 167.113 116.999C166.521 117.796 165.663 118.353 164.694 118.568L151.224 121.006L150.77 120.841Z" fill="#FBFAFC"/>
<path d="M150.77 84.9355C151.031 84.9462 151.285 85.0169 151.514 85.1421L164.818 92.9099C165.154 93.155 165.425 93.4795 165.605 93.8544C165.785 94.2292 165.87 94.6429 165.851 95.0585V114.024C165.895 114.525 165.767 115.027 165.49 115.447C165.212 115.867 164.801 116.181 164.322 116.337L151.018 118.734H150.77C150.229 118.642 149.744 118.347 149.414 117.909C149.083 117.471 148.933 116.924 148.993 116.379V87.4559C148.933 86.9108 149.083 86.3631 149.414 85.9252C149.744 85.4874 150.229 85.1924 150.77 85.1008V84.9355ZM150.77 80.969C149.13 81.0546 147.589 81.7838 146.483 82.9983C145.377 84.2128 144.794 85.8146 144.862 87.4559V116.585C144.823 117.399 144.945 118.213 145.221 118.98C145.497 119.747 145.921 120.452 146.47 121.054C147.019 121.657 147.681 122.145 148.419 122.491C149.157 122.838 149.956 123.035 150.77 123.072H151.762L165.273 120.387C166.711 120.076 167.993 119.267 168.893 118.103C169.793 116.938 170.252 115.494 170.19 114.024V95.0585C170.211 93.9211 169.937 92.7977 169.393 91.7982C168.85 90.7987 168.057 89.9574 167.091 89.3566L153.786 81.5888C152.937 81.0806 151.967 80.8095 150.977 80.8037L150.77 80.969Z" fill="#360C4A"/>
<path d="M215.598 118.032L201.178 191.619C200.899 193.064 200.169 194.383 199.092 195.385C198.015 196.388 196.648 197.022 195.187 197.197L123.582 205.998H123.087L51.2756 197.115C50.0456 196.962 48.8953 196.425 47.9897 195.579C47.0841 194.732 46.4698 193.621 46.2348 192.404L31.4842 117.288V116.503C31.3129 115.657 31.3315 114.785 31.5385 113.947C31.7456 113.11 32.136 112.329 32.6815 111.661C33.227 110.993 33.9141 110.454 34.6931 110.084C35.4721 109.714 36.3236 109.521 37.1861 109.52H38.0125L123.665 121.915L207.871 109.851H208.863C209.808 109.851 210.744 110.045 211.611 110.422C212.478 110.799 213.259 111.35 213.904 112.04C214.625 112.843 215.153 113.801 215.446 114.839C215.74 115.878 215.792 116.97 215.598 118.032Z" fill="#FF8A00"/>
<path d="M123.542 208.105H122.757L51.0285 199.139C49.3635 198.94 47.8052 198.216 46.5793 197.072C45.3535 195.928 44.524 194.423 44.211 192.776L29.2951 116.709C29.0994 115.455 29.1952 114.173 29.5749 112.962C29.9547 111.751 30.6083 110.644 31.485 109.726C32.3658 108.897 33.4182 108.27 34.5676 107.892C35.7171 107.514 36.9357 107.392 38.1372 107.537L123.583 119.932L207.5 107.908H208.781C210.112 107.908 211.425 108.202 212.628 108.77C213.832 109.337 214.894 110.164 215.739 111.192C216.585 112.219 217.192 113.42 217.518 114.71C217.844 116 217.88 117.346 217.623 118.651V118.651L203.203 191.991C202.841 193.863 201.893 195.572 200.497 196.872C199.101 198.171 197.329 198.994 195.435 199.222L123.542 208.105ZM37.1869 111.586C36.6249 111.573 36.0673 111.688 35.5561 111.922C35.0449 112.156 34.5933 112.502 34.2354 112.936C33.8775 113.369 33.6225 113.878 33.4896 114.424C33.3567 114.971 33.3494 115.54 33.4683 116.089V116.874L48.2188 191.991C48.3639 192.783 48.7593 193.507 49.3469 194.058C49.9345 194.608 50.6832 194.955 51.483 195.048L123.625 203.932L194.94 195.131C195.953 194.993 196.897 194.539 197.639 193.835C198.38 193.131 198.881 192.211 199.071 191.206L213.492 117.618C213.636 116.852 213.597 116.063 213.377 115.316C213.156 114.568 212.762 113.884 212.225 113.319C211.688 112.754 211.025 112.325 210.29 112.066C209.554 111.808 208.768 111.728 207.996 111.834L123.583 123.94H123.294L37.6414 111.544L37.1869 111.586Z" fill="#360C4A"/>
<path d="M43.6732 157.366C51.6476 157.366 58.1346 162.696 58.1346 169.266C58.1346 175.877 51.6476 181.207 43.6732 181.207H38.6737C37.6252 181.275 36.5839 180.991 35.7154 180.4C34.8469 179.808 34.2012 178.943 33.8808 177.943L31.1538 165.878C30.9253 164.859 30.928 163.803 31.1617 162.785C31.3953 161.768 31.8541 160.816 32.5042 160C33.1543 159.183 33.9791 158.523 34.9181 158.067C35.8571 157.611 36.8863 157.372 37.93 157.366H43.6732Z" fill="white"/>
<path d="M43.6729 183.273H38.6734C37.1579 183.328 35.6668 182.88 34.4333 181.997C33.1998 181.115 32.2934 179.849 31.8559 178.397L29.1289 166.332C28.8239 165.01 28.8216 163.636 29.1221 162.313C29.4227 160.989 30.0183 159.751 30.8645 158.69C31.7107 157.63 32.7857 156.774 34.0091 156.187C35.2325 155.6 36.5727 155.297 37.9297 155.3H43.6729C52.7629 155.3 60.2002 161.581 60.2002 169.266C60.2002 176.951 52.7629 183.273 43.6729 183.273ZM37.9297 159.432C37.1917 159.439 36.4644 159.61 35.8 159.931C35.1356 160.253 34.5507 160.717 34.0871 161.291C33.6331 161.867 33.3124 162.536 33.148 163.251C32.9837 163.965 32.9799 164.707 33.1368 165.423L35.9051 177.488C36.1361 178.018 36.5273 178.463 37.0238 178.759C37.5203 179.056 38.0972 179.189 38.6734 179.141H43.6729C50.4904 179.141 56.0684 174.72 56.0684 169.266C56.0684 163.812 50.4904 159.432 43.6729 159.432H37.9297Z" fill="#360C4A"/>
<path d="M203.327 157.366C195.311 157.366 188.865 162.696 188.865 169.266C188.865 175.877 195.311 181.207 203.327 181.207H208.326C209.373 181.268 210.411 180.981 211.278 180.391C212.145 179.8 212.792 178.939 213.119 177.943L215.846 165.878C216.075 164.856 216.072 163.796 215.836 162.775C215.6 161.755 215.137 160.801 214.483 159.984C213.828 159.166 212.998 158.507 212.054 158.054C211.11 157.601 210.076 157.366 209.029 157.366H203.327Z" fill="white"/>
<path d="M208.326 183.273H203.327C194.195 183.273 186.799 176.992 186.799 169.266C186.799 161.539 194.195 155.3 203.327 155.3H209.028C210.39 155.292 211.736 155.597 212.961 156.192C214.186 156.787 215.258 157.655 216.094 158.73C216.941 159.783 217.541 161.013 217.849 162.329C218.156 163.645 218.164 165.013 217.871 166.332L215.102 178.397C214.673 179.846 213.774 181.111 212.548 181.993C211.321 182.876 209.836 183.326 208.326 183.273ZM203.327 159.432C196.468 159.432 190.931 163.853 190.931 169.266C190.931 174.679 196.468 179.141 203.327 179.141H208.326C208.908 179.193 209.491 179.056 209.99 178.751C210.488 178.446 210.875 177.989 211.094 177.447L213.821 165.423C213.99 164.708 213.993 163.963 213.828 163.247C213.663 162.53 213.336 161.861 212.871 161.292C212.414 160.711 211.83 160.241 211.164 159.919C210.498 159.597 209.768 159.43 209.028 159.432H203.327Z" fill="#360C4A"/>
<path d="M123.541 97.7441C144.991 97.7441 162.38 80.3552 162.38 58.905C162.38 37.4548 144.991 20.0659 123.541 20.0659C102.091 20.0659 84.7021 37.4548 84.7021 58.905C84.7021 80.3552 102.091 97.7441 123.541 97.7441Z" fill="#FBFAFC"/>
<path d="M123.541 99.81C115.451 99.81 107.542 97.411 100.816 92.9163C94.0889 88.4216 88.846 82.0331 85.75 74.5587C82.654 67.0843 81.8439 58.8596 83.4222 50.9248C85.0006 42.99 88.8964 35.7015 94.617 29.9808C100.338 24.2601 107.626 20.3643 115.561 18.786C123.496 17.2077 131.72 18.0177 139.195 21.1137C146.669 24.2097 153.058 29.4526 157.552 36.1794C162.047 42.9062 164.446 50.8148 164.446 58.905C164.435 69.7503 160.122 80.1483 152.453 87.8171C144.785 95.4859 134.387 99.799 123.541 99.81ZM123.541 22.1318C116.268 22.1318 109.158 24.2885 103.111 28.3292C97.0638 32.3699 92.3505 38.1131 89.5673 44.8325C86.784 51.5519 86.0558 58.9458 87.4747 66.0791C88.8936 73.2124 92.3959 79.7647 97.5387 84.9076C102.682 90.0504 109.234 93.5527 116.367 94.9716C123.5 96.3905 130.894 95.6623 137.614 92.879C144.333 90.0957 150.076 85.3824 154.117 79.3351C158.158 73.2878 160.314 66.1781 160.314 58.905C160.303 49.1555 156.426 39.8085 149.532 32.9145C142.638 26.0206 133.291 22.1428 123.541 22.1318V22.1318Z" fill="#360C4A"/>
<path d="M123 139L123 190" stroke="#FBFAFC" stroke-width="6" stroke-linecap="round" stroke-linejoin="round"/>
</svg>
