<?xml version="1.0" encoding="UTF-8" standalone="no"?>
<!DOCTYPE svg PUBLIC "-//W3C//DTD SVG 1.1//EN" "http://www.w3.org/Graphics/SVG/1.1/DTD/svg11.dtd">
<svg width="100%" height="100%" viewBox="0 0 129 20" version="1.1" xmlns="http://www.w3.org/2000/svg" xmlns:xlink="http://www.w3.org/1999/xlink" xml:space="preserve" xmlns:serif="http://www.serif.com/" style="fill-rule:evenodd;clip-rule:evenodd;stroke-linejoin:round;stroke-miterlimit:2;">
    <path d="M91.462,0L93.931,7.601L101.923,7.601L95.458,12.298L97.927,19.899L91.462,15.202L84.996,19.899L87.466,12.298L81,7.601L88.992,7.601L91.462,0Z" style="fill:rgb(250,161,57);fill-rule:nonzero;"/>
    <path d="M118.462,0L120.931,7.601L128.923,7.601L122.458,12.298L124.927,19.899L118.462,15.202L111.996,19.899L114.466,12.298L108,7.601L115.992,7.601L118.462,0Z" style="fill:rgb(250,161,57);fill-rule:nonzero;"/>
    <path d="M64.462,0L66.931,7.601L74.923,7.601L68.458,12.298L70.927,19.899L64.462,15.202L57.996,19.899L60.466,12.298L54,7.601L61.992,7.601L64.462,0Z" style="fill:rgb(250,161,57);fill-rule:nonzero;"/>
    <path d="M37.462,0L39.931,7.601L47.923,7.601L41.458,12.298L43.927,19.899L37.462,15.202L30.996,19.899L33.466,12.298L27,7.601L34.992,7.601L37.462,0Z" style="fill:rgb(250,161,57);fill-rule:nonzero;"/>
    <path d="M10.462,0L12.931,7.601L20.923,7.601L14.458,12.298L16.927,19.899L10.462,15.202L3.996,19.899L6.466,12.298L0,7.601L7.992,7.601L10.462,0Z" style="fill:rgb(250,161,57);fill-rule:nonzero;"/>
</svg>
